<?xml version="1.0" standalone="no"?>
<!DOCTYPE svg PUBLIC "-//W3C//DTD SVG 20010904//EN"
 "http://www.w3.org/TR/2001/REC-SVG-20010904/DTD/svg10.dtd">
<svg version="1.0" xmlns="http://www.w3.org/2000/svg"
 width="700.000000pt" height="700.000000pt" viewBox="0 0 700.000000 700.000000"
 preserveAspectRatio="xMidYMid meet">
<metadata>
Created by potrace 1.14, written by Peter Selinger 2001-2017
</metadata>
<g transform="translate(0.000000,700.000000) scale(0.100000,-0.100000)"
fill="#000000" stroke="none">
<path d="M3150 6409 c-273 -28 -485 -233 -516 -498 -4 -30 -8 -122 -9 -205 -2
-83 -3 -154 -4 -157 -1 -4 -290 -7 -643 -7 -818 0 -849 -1 -933 -18 -248 -51
-423 -245 -453 -502 -10 -89 -8 -3914 3 -3957 10 -43 11 -47 20 -80 31 -119
152 -265 273 -328 142 -75 48 -71 1572 -72 1469 -1 1453 -2 1567 50 191 86
314 255 339 461 3 31 7 125 8 208 l2 151 635 2 c819 2 865 3 946 19 118 24
221 82 300 167 94 102 133 191 152 344 8 70 7 2927 -2 2958 -3 11 -8 34 -13
50 -12 52 -55 137 -94 190 -21 27 -283 293 -582 591 -520 518 -546 542 -618
576 -135 64 -94 62 -1030 63 -470 0 -884 -2 -920 -6z m1217 -583 c4 -4 8 -210
9 -459 0 -249 4 -471 8 -494 4 -24 8 -46 8 -50 0 -22 53 -143 79 -185 45 -69
145 -158 220 -195 126 -63 155 -65 664 -68 253 -2 465 -3 470 -4 7 -1 9 -376
8 -1108 0 -610 -2 -1133 -2 -1164 l-1 -56 -727 1 -728 1 -1 995 c-1 547 -4
1010 -8 1029 -12 59 -45 143 -78 199 -23 38 -201 223 -555 579 l-523 523 0
229 0 230 33 3 c68 6 1117 1 1124 -6z m1338 -864 c-4 -5 -737 -4 -741 1 -4 3
-8 658 -5 730 1 12 130 -110 375 -355 205 -205 372 -374 371 -376z m-3374 -16
c0 -6 2 -218 3 -471 3 -508 6 -536 68 -663 37 -75 140 -185 210 -226 54 -31
141 -63 195 -72 68 -11 122 -12 556 -13 l427 -1 0 -1164 0 -1164 -32 -3 c-60
-7 -2578 -2 -2585 4 -5 5 -9 3522 -4 3743 l1 41 580 0 c422 0 580 -3 581 -11z
m961 -483 c203 -203 368 -370 368 -374 0 -8 -727 -5 -736 3 -8 8 -12 738 -4
738 3 0 170 -165 372 -367z"/>
</g>
</svg>
